<svg width="76" height="57" viewBox="0 0 76 57" fill="none" xmlns="http://www.w3.org/2000/svg">
<path d="M37.7392 46.5165C37.7392 57.9934 29.4347 67.2973 19.1906 67.2973C8.94646 67.2973 0.641968 57.9934 0.641968 46.5165C0.641968 40.4654 2.95042 35.0185 6.63451 31.2206C9.93797 27.8152 14.3475 25.7357 19.1906 25.7357C29.4347 25.7357 37.7392 35.0396 37.7392 46.5165Z" fill="white" fill-opacity="0.12"/>
<path d="M37.7392 46.5165C37.7392 57.9934 29.4347 67.2973 19.1906 67.2973H72.7231C62.479 67.2973 54.1745 57.9934 54.1745 46.5165C54.1745 45.0504 54.31 43.6199 54.5677 42.2396C53.6942 42.381 52.801 42.4542 51.8925 42.4542C42.8893 42.4542 35.3842 35.2678 33.6981 25.7357H21.5988H19.1906C29.4347 25.7357 37.7392 35.0396 37.7392 46.5165Z" fill="white" fill-opacity="0.12"/>
<path d="M33.6981 25.7357C33.4657 24.4219 33.3439 23.0636 33.3439 21.6734C33.3439 19.8476 33.5541 18.0767 33.9488 16.3896C32.3988 19.505 27.7588 25.7357 21.5988 25.7357H33.6981Z" fill="white" fill-opacity="0.12"/>
<path fill-rule="evenodd" clip-rule="evenodd" d="M72.7231 67.2973C82.9672 67.2973 91.2717 57.9934 91.2717 46.5165C91.2717 35.0396 82.9672 25.7357 72.7231 25.7357C71.8146 25.7357 70.9214 25.8089 70.0478 25.9502C68.4668 34.4171 62.286 40.9905 54.5677 42.2396C54.31 43.6199 54.1745 45.0504 54.1745 46.5165C54.1745 57.9934 62.479 67.2973 72.7231 67.2973Z" fill="white" fill-opacity="0.12"/>
<path d="M70.0478 25.9502C68.4668 34.4171 62.286 40.9905 54.5677 42.2396C56.1488 33.7727 62.3296 27.1993 70.0478 25.9502Z" fill="white" fill-opacity="0.12"/>
<path d="M70.4411 21.6734C70.4411 10.1965 62.1366 0.892578 51.8925 0.892578C43.2781 0.892578 36.0352 7.47168 33.9488 16.3896C33.5541 18.0767 33.3439 19.8476 33.3439 21.6734C33.3439 23.0636 33.4657 24.4219 33.6981 25.7357C35.3842 35.2678 42.8893 42.4542 51.8925 42.4542C52.801 42.4542 53.6942 42.381 54.5677 42.2396C56.1488 33.7727 62.3296 27.1993 70.0478 25.9502C70.3056 24.57 70.4411 23.1394 70.4411 21.6734Z" fill="white" fill-opacity="0.12"/>
</svg>
